<svg xmlns="http://www.w3.org/2000/svg" viewBox="0 0 512 512"><title>Setting</title><g id="Setting"><g id="Setting-2" data-name="Setting"><path d="M256,73.8247A182.1753,182.1753,0,1,0,438.18,256.0036,182.182,182.182,0,0,0,256,73.8247Zm46.2212,201.34a63.1065,63.1065,0,0,1-20.0646-3.2616l-88.0136,88.0056a10.7854,10.7854,0,0,1-15.2758,0l-21.8142-21.8151a10.81,10.81,0,0,1,0-15.2838l86.6682-86.6691a63.3751,63.3751,0,0,1,58.5-87.6708,63.7732,63.7732,0,0,1,18.8352,2.8476l-42.3459,42.3459,40.5,40.509,42.9175-42.9174a63.3324,63.3324,0,0,1-59.9068,83.91Z"/></g></g></svg>