<svg xmlns="http://www.w3.org/2000/svg" viewBox="0 0 512 512"><title>Documents</title><g id="Documents"><g id="Documents-2" data-name="Documents"><rect x="180.3964" y="292.9932" width="113.4054" height="12.6036"/><rect x="180.3964" y="265.0436" width="113.4054" height="12.6036"/><rect x="180.3964" y="237.095" width="113.4054" height="12.6036"/><rect x="180.3964" y="322.5509" width="113.4054" height="12.6036"/><path d="M256,73.8206A182.1788,182.1788,0,0,0,73.82,256.0086c0,100.6083,81.5625,182.1708,182.18,182.1708s182.18-81.5625,182.18-182.1708A182.1787,182.1787,0,0,0,256,73.8206Zm62.7191,138.4452V373.0543a2.4589,2.4589,0,0,1-2.4589,2.4589H157.9388a2.4589,2.4589,0,0,1-2.4589-2.4589v-202.6a2.459,2.459,0,0,1,2.459-2.459H316.2611a2.4581,2.4581,0,0,1,2.4581,2.4581Zm28.3527-28.3536V325.0205a22.1377,22.1377,0,0,1-15.75,21.2V190.1259a34.7736,34.7736,0,0,0-34.7256-34.7347H184.7731a22.1376,22.1376,0,0,1,21.1905-15.75H324.95a22.1305,22.1305,0,0,1,22.122,22.131v22.14Z"/><rect x="180.3964" y="209.1455" width="113.4054" height="12.5946"/></g></g></svg>